#tb 0: 1/30
#tb 1: 1/44100
0,          0,          0,        1,   107520, 0xa6c9fdd2
1,          0,          0,    22048,    88192, 0x23bb50ae
0,          1,          1,        1,   107520, 0x61eb28c1
0,          2,          2,        1,   107520, 0x45e20af7
0,          3,          3,        1,   107520, 0x366970fc
0,          4,          4,        1,   107520, 0xa392bcb3
0,          5,          5,        1,   107520, 0xcf7bac98
0,          6,          6,        1,   107520, 0x222eba53
0,          7,          7,        1,   107520, 0x74e255a1
0,          8,          8,        1,   107520, 0xc19eec6f
0,          9,          9,        1,   107520, 0xa3880681
0,         10,         10,        1,   107520, 0x957878db
0,         11,         11,        1,   107520, 0x18340692
0,         12,         12,        1,   107520, 0x9970f24d
0,         13,         13,        1,   107520, 0xf08618aa
0,         14,         14,        1,   107520, 0xee7324f0
1,      22048,      22048,    11028,    44112, 0x79600f01
0,         15,         15,        1,   107520, 0xe15025b3
0,         16,         16,        1,   107520, 0x8afa312e
0,         17,         17,        1,   107520, 0x717a7d0f
0,         18,         18,        1,   107520, 0x355c6e23
0,         19,         19,        1,   107520, 0x7015a50f
0,         20,         20,        1,   107520, 0xcdfc1a16
0,         21,         21,        1,   107520, 0x38d929e7
0,         22,         22,        1,   107520, 0x52913423
1,      33076,      33076,    11024,    44096, 0x09dbf7aa
0,         23,         23,        1,   107520, 0xe2c91c10
0,         24,         24,        1,   107520, 0x85516e9c
0,         25,         25,        1,   107520, 0xd1626030
0,         26,         26,        1,   107520, 0xea7b16de
0,         27,         27,        1,   107520, 0xa33eaa0d
0,         28,         28,        1,   107520, 0x8e3be6a6
0,         29,         29,        1,   107520, 0x14147bd6
0,         30,         30,        1,   107520, 0x07d54bec
1,      44100,      44100,    11028,    44112, 0x18fed048
0,         31,         31,        1,   107520, 0xe287a0a7
0,         32,         32,        1,   107520, 0xc023a14d
0,         33,         33,        1,   107520, 0x2437085d
0,         34,         34,        1,   107520, 0x63823918
0,         35,         35,        1,   107520, 0xbc17e198
0,         36,         36,        1,   107520, 0x9d99bc81
0,         37,         37,        1,   107520, 0x7e4ec71e
1,      55128,      55128,    11028,    44112, 0x030d35ef
0,         38,         38,        1,   107520, 0x55b98376
0,         39,         39,        1,   107520, 0x356d8e9e
0,         40,         40,        1,   107520, 0xf77e8a61
0,         41,         41,        1,   107520, 0x5ae7c8c7
0,         42,         42,        1,   107520, 0x8acf9322
0,         43,         43,        1,   107520, 0x40a9177e
0,         44,         44,        1,   107520, 0x3e0e4d8d
0,         45,         45,        1,   107520, 0xd268865b
1,      66156,      66156,    11028,    44112, 0xc23154d5
0,         46,         46,        1,   107520, 0x89a4efeb
0,         47,         47,        1,   107520, 0x70ca2478
0,         48,         48,        1,   107520, 0xcc9ec981
0,         49,         49,        1,   107520, 0xf0648459
0,         50,         50,        1,   107520, 0x7e4a4cca
0,         51,         51,        1,   107520, 0xb315dc65
0,         52,         52,        1,   107520, 0x2aecc7b4
1,      77184,      77184,    11016,    44064, 0xe4713ee7
0,         53,         53,        1,   107520, 0x81742f51
0,         54,         54,        1,   107520, 0x3a1d7571
0,         55,         55,        1,   107520, 0x3a1d7571
0,         56,         56,        1,   107520, 0x3a1d7571
0,         57,         57,        1,   107520, 0x3a1d7571
0,         58,         58,        1,   107520, 0x3a1d7571
0,         59,         59,        1,   107520, 0x3a1d7571
0,         60,         60,        1,   107520, 0x3a1d7571
1,      88200,      88200,    11028,    44112, 0xddc19d91
0,         61,         61,        1,   107520, 0xe974733e
0,         62,         62,        1,   107520, 0x999c6fbf
0,         63,         63,        1,   107520, 0x26b56b6e
0,         64,         64,        1,   107520, 0xc9f9647b
0,         65,         65,        1,   107520, 0x6d025d00
0,         66,         66,        1,   107520, 0xf9c056c1
0,         67,         67,        1,   107520, 0xa5cc4d0b
1,      99228,      99228,    11028,    44112, 0x9591522d
0,         68,         68,        1,   107520, 0x1a4c4236
0,         69,         69,        1,   107520, 0xa9d538b6
0,         70,         70,        1,   107520, 0x14682d00
0,         71,         71,        1,   107520, 0x6236204f
0,         72,         72,        1,   107520, 0x303e14aa
0,         73,         73,        1,   107520, 0x943b0837
0,         74,         74,        1,   107520, 0xfce5fd07
0,         75,         75,        1,   107520, 0xd993f193
1,     110256,     110256,    11028,    44112, 0x90deb013
0,         76,         76,        1,   107520, 0x4d48e7b4
0,         77,         77,        1,   107520, 0x61ccdf83
0,         78,         78,        1,   107520, 0xfb4fd608
0,         79,         79,        1,   107520, 0x5efdcdb3
0,         80,         80,        1,   107520, 0xb03ec886
0,         81,         81,        1,   107520, 0xf464c343
0,         82,         82,        1,   107520, 0xf464c343
1,     121284,     121284,    11016,    44064, 0x3842d420
0,         83,         83,        1,   107520, 0xf464c343
0,         84,         84,        1,   107520, 0xf464c343
0,         85,         85,        1,   107520, 0xf464c343
0,         86,         86,        1,   107520, 0xf464c343
0,         87,         87,        1,   107520, 0xf464c343
0,         88,         88,        1,   107520, 0xf464c343
0,         89,         89,        1,   107520, 0xf464c343
0,         90,         90,        1,   107520, 0xf464c343
1,     132300,     132300,    11028,    44112, 0x99c8c3d9
0,         91,         91,        1,   107520, 0xf464c343
0,         92,         92,        1,   107520, 0xf2b2c712
0,         93,         93,        1,   107520, 0xf2b2c712
0,         94,         94,        1,   107520, 0xf2b2c712
0,         95,         95,        1,   107520, 0xf2b2c712
0,         96,         96,        1,   107520, 0xb95e6bc8
0,         97,         97,        1,   107520, 0x33feee37
1,     143328,     143328,    11028,    44112, 0xffaf3824
0,         98,         98,        1,   107520, 0x36ee3cd5
0,         99,         99,        1,   107520, 0x59096471
0,        100,        100,        1,   107520, 0x53b470c6
0,        101,        101,        1,   107520, 0xdb7c64ff
0,        102,        102,        1,   107520, 0xe5a1596a
0,        103,        103,        1,   107520, 0x8c8942eb
0,        104,        104,        1,   107520, 0x5ecc379e
0,        105,        105,        1,   107520, 0xea09432a
1,     154356,     154356,    11028,    44112, 0x3dbe1aef
0,        106,        106,        1,   107520, 0xe01e6b73
0,        107,        107,        1,   107520, 0x1d13bba8
0,        108,        108,        1,   107520, 0x3a993a6c
0,        109,        109,        1,   107520, 0x2ede041a
1,     165384,     165384,    11016,    44064, 0xed2c7dfb
1,     176400,     176400,    11028,    44112, 0x9e475274
1,     187428,     187428,    11028,    44112, 0x541f05d4
1,     198456,     198456,    11028,    44112, 0x09e39025
1,     209484,     209484,    11016,    44064, 0xdc111087
1,     220500,     220500,    11028,    44112, 0xb8f86e48
1,     231528,     231528,    11028,    44112, 0xa1e0c75c
1,     242556,     242556,    11028,    44112, 0x0654dcb0
1,     253584,     253584,    11016,    44064, 0xb921e11a
1,     264600,     264600,    11028,    44112, 0xe0ac619f
1,     275628,     275628,    11028,    44112, 0xb07aa65c
1,     286656,     286656,    11028,    44112, 0x24610ff0
1,     297684,     297684,    11016,    44064, 0x00000000
1,     308700,     308700,    11028,    44112, 0x00000000
1,     319728,     319728,     2200,     8800, 0x00000000
